<?xml version="1.0" standalone="no"?>
<!DOCTYPE svg PUBLIC "-//W3C//DTD SVG 20010904//EN"
 "http://www.w3.org/TR/2001/REC-SVG-20010904/DTD/svg10.dtd">
<svg version="1.0" xmlns="http://www.w3.org/2000/svg"
 width="3782.000000pt" height="3904.000000pt" viewBox="0 0 3782.000000 3904.000000"
 preserveAspectRatio="xMidYMid meet">

<g transform="translate(0.000000,3904.000000) scale(0.100000,-0.100000)"
fill="#000000" stroke="none">
<path d="M25060 37574 c-1036 -123 -2172 -554 -3103 -1176 -562 -376 -1125
-870 -1519 -1337 l-37 -44 -153 41 c-507 138 -1020 225 -1628 278 -250 21
-955 30 -1215 15 -814 -47 -1529 -182 -2253 -424 l-183 -61 -16 23 c-8 13 -66
88 -128 167 -838 1077 -1891 1860 -3078 2288 -289 105 -711 210 -893 223 -88
6 -131 -6 -178 -53 -33 -34 -226 -310 -337 -484 -681 -1068 -1124 -2346 -1298
-3753 -59 -468 -80 -781 -88 -1297 -13 -897 68 -1810 233 -2615 19 -93 35
-177 36 -185 0 -8 -38 -112 -84 -230 -399 -1009 -656 -2155 -685 -3058 -4
-133 -10 -192 -17 -189 -215 82 -592 177 -876 221 -311 49 -797 69 -1115 47
-1352 -95 -2637 -658 -3571 -1563 -735 -713 -1185 -1563 -1309 -2473 -26 -183
-31 -565 -11 -753 35 -330 79 -497 283 -1072 186 -524 206 -576 296 -755 303
-607 817 -1128 1449 -1470 l88 -47 -41 -56 c-579 -800 -910 -1741 -989 -2807
-13 -179 -13 -698 0 -880 134 -1855 994 -3667 2420 -5095 1065 -1066 2337
-1804 3697 -2144 746 -187 1511 -242 2228 -161 781 89 1579 369 2185 768 l25
16 1 -337 c1 -330 9 -484 40 -767 202 -1851 1051 -3516 2338 -4588 670 -558
1439 -926 2236 -1071 267 -48 414 -60 735 -61 343 0 323 -1 1050 101 651 91
737 106 937 155 780 192 1465 586 2069 1189 329 329 571 641 829 1070 179 297
404 789 530 1155 169 491 293 1086 341 1626 l12 137 110 -49 c60 -27 180 -76
266 -108 1360 -513 2943 -517 4461 -11 1580 526 2922 1528 3763 2810 837 1276
1101 2718 733 4000 -65 227 -104 327 -368 950 -308 725 -356 822 -564 1135
-426 644 -1057 1187 -1799 1550 -612 299 -1286 485 -2045 562 -221 22 -945 26
-1165 5 -224 -21 -507 -59 -685 -92 l-165 -30 -18 22 c-10 12 -14 24 -10 28 4
4 68 17 141 29 273 46 614 142 896 253 157 62 462 213 611 303 471 285 872
667 1172 1115 68 102 513 867 615 1058 28 50 51 92 52 92 2 0 63 -29 137 -64
564 -268 1159 -426 1869 -498 165 -17 747 -17 910 0 307 31 541 70 799 133
1437 351 2532 1304 2877 2502 56 196 81 339 140 814 63 502 77 776 55 1008
-65 673 -337 1305 -805 1872 -179 216 -484 503 -732 691 -230 173 -590 387
-862 512 -1225 563 -2644 656 -3886 253 -890 -288 -1616 -801 -2095 -1481 -44
-62 -81 -118 -84 -125 -4 -14 10 -24 -206 140 -167 127 -382 274 -558 382 -57
35 -103 66 -103 70 0 46 -37 381 -60 541 -132 925 -414 1887 -805 2752 l-53
117 19 93 c11 51 33 171 49 268 177 1055 215 2257 104 3325 -166 1613 -647
3031 -1427 4205 -182 275 -215 317 -270 345 -58 29 -92 30 -267 9z m-297 -491
c-495 -736 -1006 -1772 -1429 -2900 -130 -347 -264 -751 -264 -793 1 -44 22
-105 47 -132 10 -11 85 -73 168 -137 628 -487 1235 -1072 1730 -1666 1051
-1262 1793 -2760 2149 -4341 97 -430 158 -838 191 -1276 l7 -87 -119 -233
c-601 -1173 -1555 -2205 -2818 -3047 -959 -639 -2080 -1155 -3226 -1485 -881
-253 -1728 -400 -2699 -466 -432 -30 -1187 -23 -1670 16 -2122 168 -4044 904
-5550 2125 -303 245 -576 496 -920 845 -701 711 -1231 1428 -1433 1939 -62
156 -69 217 -57 449 38 702 175 1438 409 2196 99 321 257 750 337 915 24 50
44 96 44 102 0 34 250 553 395 818 485 891 1077 1672 1826 2410 304 300 511
483 869 772 178 143 190 159 190 252 0 78 -337 1030 -533 1506 -261 633 -560
1251 -827 1710 -103 177 -215 363 -255 423 -15 23 -26 44 -24 46 6 7 292 -86
426 -138 944 -363 1824 -994 2527 -1811 132 -154 306 -372 306 -384 0 -3 -64
-35 -142 -70 -339 -152 -918 -466 -1007 -545 -59 -53 -79 -171 -41 -245 43
-85 145 -134 231 -111 24 7 93 42 154 79 1581 965 3484 1321 5480 1025 348
-51 786 -149 1092 -243 73 -23 145 -41 161 -41 55 0 130 48 172 109 92 137
464 527 716 753 494 441 983 772 1579 1068 562 280 1055 455 1650 586 188 41
181 41 158 7z m566 -218 c529 -835 912 -1814 1126 -2880 99 -498 157 -944 197
-1535 16 -246 17 -1124 0 -1385 -25 -393 -90 -1021 -112 -1079 -5 -15 -17 -1
-55 70 -198 364 -530 874 -824 1263 l-101 134 0 141 c0 197 -17 605 -35 836
-72 922 -247 1726 -525 2415 -108 268 -289 621 -437 848 l-63 98 31 62 c64
126 226 418 332 597 125 211 353 560 365 560 5 0 50 -65 101 -145z m-14426 12
c156 -236 356 -578 500 -856 l75 -143 -53 -82 c-482 -742 -816 -1767 -960
-2946 -52 -435 -74 -761 -82 -1240 l-6 -375 -97 -140 c-252 -365 -525 -818
-701 -1166 l-53 -104 -23 150 c-55 361 -103 854 -123 1260 -13 268 -13 863 0
1126 87 1746 539 3252 1353 4507 43 67 83 122 87 122 4 0 42 -51 83 -113z
m21762 -10017 c1450 -78 2752 -722 3509 -1737 495 -664 705 -1428 596 -2175
-139 -949 -776 -1778 -1754 -2284 -495 -256 -1029 -413 -1627 -479 -200 -22
-653 -31 -864 -16 -640 45 -1281 205 -1791 446 l-112 53 9 48 c14 75 37 277
45 392 l7 102 41 -24 c22 -13 109 -57 191 -99 443 -220 911 -355 1465 -424
181 -22 733 -25 905 -5 539 63 1023 205 1489 439 941 471 1509 1276 1543 2188
28 750 -329 1522 -968 2093 -709 633 -1616 1004 -2649 1083 -193 15 -634 6
-820 -15 -812 -95 -1497 -377 -2036 -837 -247 -212 -492 -515 -619 -768 l-26
-53 -152 148 c-84 81 -158 153 -166 160 -11 10 -1 32 62 126 260 390 638 744
1079 1011 150 91 452 241 613 304 634 250 1329 360 2030 323z m882 -1170 c115
-70 166 -285 128 -543 -13 -91 -14 -121 -5 -132 6 -8 53 -37 104 -64 264 -142
479 -318 713 -584 l42 -48 83 8 c123 12 422 8 507 -5 188 -31 313 -105 296
-175 -26 -103 -264 -247 -690 -417 -99 -39 -189 -78 -200 -85 -11 -7 -54 -68
-95 -136 -178 -294 -321 -439 -520 -526 -41 -18 -83 -33 -94 -33 -28 0 -148
127 -188 200 -50 91 -78 189 -85 298 -3 50 -10 92 -15 92 -5 0 -26 -9 -48 -20
-89 -45 -187 -65 -330 -64 -121 0 -144 3 -215 28 -90 30 -218 102 -213 118 2
6 22 24 45 40 l41 30 61 -22 c71 -26 143 -24 205 5 39 19 76 66 76 97 0 25
-45 73 -130 138 -113 86 -168 94 -245 36 -59 -46 -70 -132 -23 -191 l22 -28
-45 -38 c-24 -21 -47 -39 -50 -39 -17 0 -127 133 -154 185 -27 55 -30 69 -30
160 0 88 3 107 27 159 16 32 43 79 62 105 l34 46 -94 2 c-173 3 -359 52 -514
135 -78 41 -140 84 -140 96 0 15 90 116 141 159 128 106 307 194 584 288 l179
60 79 115 c188 272 386 487 500 541 75 35 146 39 194 9z m-26437 -50 c404 -28
784 -103 1150 -226 91 -30 189 -67 219 -82 53 -27 53 -27 105 -147 79 -180
241 -468 345 -610 40 -55 41 -55 -84 31 -500 342 -1127 544 -1845 594 -786 54
-1672 -129 -2435 -505 -482 -237 -857 -504 -1220 -869 -580 -582 -925 -1265
-996 -1970 -14 -148 -7 -462 15 -601 135 -858 705 -1572 1575 -1969 213 -98
414 -165 690 -232 102 -25 192 -47 199 -50 7 -2 -99 -103 -240 -229 -236 -211
-255 -225 -283 -219 -138 30 -472 159 -682 264 -1009 503 -1628 1355 -1739
2392 -19 182 -14 516 11 697 152 1099 862 2138 1950 2854 267 175 646 373 953
496 508 205 1098 342 1637 380 173 12 507 12 675 1z m20740 -218 c923 -598
1668 -1448 2079 -2374 267 -599 394 -1203 378 -1783 -10 -341 -48 -579 -144
-915 -36 -125 -179 -478 -189 -467 -2 2 3 41 11 88 67 377 72 802 14 1204
-182 1268 -959 2499 -2139 3392 -107 81 -400 282 -477 328 -2 1 36 69 83 151
47 82 121 220 165 307 54 106 84 155 92 151 7 -4 64 -41 127 -82z m3340 -662
c20 -5 56 -23 82 -39 119 -75 144 -202 58 -289 -45 -45 -61 -80 -53 -113 5
-21 1436 -2503 1499 -2601 31 -48 66 -65 154 -78 202 -29 319 -192 226 -315
-56 -73 -201 -113 -315 -86 -40 9 -47 8 -59 -10 -45 -64 -114 -98 -216 -106
-173 -13 -315 87 -316 222 0 52 9 71 62 133 32 37 36 77 13 123 -9 16 -236
410 -505 875 -270 465 -490 847 -490 849 0 1 -40 70 -88 151 -49 82 -160 273
-247 424 -87 151 -165 283 -174 294 -24 28 -61 44 -141 60 -83 18 -144 50
-188 100 -117 134 -19 291 188 304 41 2 93 -1 115 -7 34 -9 41 -8 49 7 19 34
68 71 119 91 57 22 168 27 227 11z m-3722 -107 c1019 -676 1787 -1622 2167
-2670 99 -272 181 -608 221 -903 22 -168 30 -607 14 -782 -70 -781 -394 -1482
-935 -2023 -566 -566 -1334 -929 -2228 -1052 -113 -15 -130 -15 -137 -3 -5 8
-74 108 -153 222 l-145 207 41 5 c23 3 94 10 157 17 348 34 745 136 1060 271
650 279 1151 744 1446 1343 313 636 373 1353 177 2120 -74 292 -187 579 -357
910 -255 495 -513 851 -891 1230 -242 243 -532 480 -812 664 -62 41 -113 77
-113 82 0 4 39 63 88 131 48 68 118 172 157 231 45 69 74 106 83 102 7 -3 79
-49 160 -102z m-21373 -173 c96 -47 173 -140 250 -304 24 -50 54 -126 66 -169
27 -94 32 -97 162 -97 114 0 331 -25 456 -51 116 -25 304 -85 435 -139 55 -22
109 -40 122 -40 12 0 69 28 126 62 224 133 435 219 593 240 229 31 267 -69
117 -310 -87 -141 -176 -250 -458 -569 l-71 -80 -7 -89 c-34 -444 -102 -657
-267 -837 l-56 -62 -59 12 c-32 7 -97 31 -144 55 -68 33 -102 58 -170 127 -48
49 -100 113 -120 149 -57 101 -50 99 -97 37 -88 -113 -269 -230 -423 -271 -68
-19 -310 -27 -326 -11 -4 4 4 32 19 62 24 50 30 55 59 55 186 0 346 201 211
265 -52 25 -222 57 -271 52 -47 -5 -92 -39 -119 -92 -35 -66 -7 -154 62 -191
19 -10 35 -22 35 -27 0 -4 -12 -31 -26 -58 -24 -49 -27 -51 -57 -45 -59 12
-176 75 -227 122 -95 89 -142 236 -120 377 6 38 9 72 6 74 -2 2 -26 -7 -53
-20 -71 -36 -206 -82 -303 -103 -61 -13 -128 -18 -240 -19 -179 0 -210 5 -210
38 0 43 31 142 69 224 78 162 184 300 403 519 l140 142 19 133 c43 297 110
563 173 688 31 59 87 126 131 153 40 24 117 24 170 -2z m25801 -41 c132 -91
343 -165 536 -189 l96 -12 -24 -46 c-42 -80 -57 -146 -52 -242 6 -125 42 -197
157 -310 121 -119 237 -183 389 -215 125 -27 309 -14 431 29 65 24 71 22 71
-22 0 -125 85 -321 185 -430 l65 -70 -42 -7 c-72 -12 -298 -7 -409 10 -338 50
-711 189 -934 346 -226 161 -391 386 -490 669 -39 114 -65 243 -65 327 0 52
27 193 36 193 3 0 26 -14 50 -31z m-1874 -417 c89 -39 157 -124 158 -196 0
-19 12 -40 38 -65 33 -33 94 -58 538 -225 l500 -187 146 -252 c81 -138 146
-252 144 -254 -1 -1 -303 111 -672 250 l-669 252 -73 140 c-75 144 -176 318
-269 463 -29 46 -50 88 -47 94 11 17 155 3 206 -20z m-3427 -298 c15 -92 -28
-163 -130 -217 -44 -23 -65 -42 -78 -68 -17 -35 -17 -43 8 -245 58 -474 265
-2158 280 -2274 9 -69 42 -339 75 -600 69 -550 64 -535 169 -604 129 -84 193
-179 194 -286 1 -137 -95 -209 -260 -197 -78 6 -160 37 -221 83 l-33 26 -58
-26 c-137 -61 -344 -7 -445 118 -51 63 -69 105 -74 176 -7 108 33 166 144 207
54 20 94 68 94 112 -1 14 -88 726 -194 1581 l-193 1555 231 230 c127 127 285
290 350 363 81 89 122 129 127 120 4 -7 10 -32 14 -54z m-16100 -1075 c17
-339 -40 -742 -157 -1108 -105 -328 -298 -714 -510 -1016 -59 -84 -77 -103
-93 -99 -51 12 -352 55 -457 66 -65 7 -118 15 -118 18 0 3 46 61 101 130 365
454 599 960 690 1491 26 158 37 487 20 650 -22 213 -95 505 -166 663 -20 46
11 17 330 -302 l352 -353 8 -140z m22338 106 c821 -308 757 -291 870 -232 56
30 68 32 156 32 85 0 102 -3 148 -27 28 -15 68 -44 87 -64 93 -95 60 -237 -67
-298 l-55 -26 15 -42 c48 -140 -97 -275 -275 -254 -131 15 -229 90 -259 198
-9 33 -27 68 -42 82 -17 16 -195 88 -539 217 l-512 192 -142 246 c-77 135
-143 250 -146 255 -3 5 1 7 9 4 8 -3 346 -130 752 -283z m-7124 -204 l194
-188 43 -344 c23 -189 41 -345 40 -347 -3 -2 -691 651 -796 754 -36 37 -42 47
-30 54 8 5 85 65 170 133 85 69 162 126 170 126 8 0 102 -84 209 -188z
m-19969 31 c0 -189 100 -346 272 -427 106 -50 178 -66 318 -72 104 -4 139 -2
212 16 155 37 278 104 401 220 37 35 69 62 70 60 2 -2 24 -34 50 -70 96 -137
233 -242 383 -293 l66 -22 -55 -36 c-135 -90 -316 -165 -526 -218 -583 -147
-1044 -108 -1399 117 -289 184 -508 447 -537 647 l-8 48 54 -8 c172 -24 410 4
591 70 51 19 96 35 101 35 4 1 7 -30 7 -67z m4982 -357 c29 -188 32 -613 5
-804 -45 -314 -131 -621 -252 -906 -40 -94 -101 -223 -110 -233 -1 -2 -43 8
-91 22 -49 14 -150 40 -224 57 -74 17 -136 32 -138 33 -1 2 26 45 62 97 314
461 532 988 615 1489 27 164 38 272 47 460 l8 155 28 -115 c15 -63 38 -178 50
-255z m-6298 266 c26 -13 59 -39 74 -59 23 -30 27 -45 26 -96 0 -34 -7 -80
-14 -102 -27 -84 -112 -22 1324 -971 721 -477 1326 -875 1344 -884 l32 -17
-52 -12 c-29 -7 -162 -48 -295 -92 l-242 -80 -428 283 c-235 155 -606 400
-823 544 -1335 884 -1253 835 -1350 800 -156 -57 -319 -10 -367 104 -30 70 13
174 99 242 43 35 140 78 174 79 17 0 23 8 29 37 18 99 106 189 228 234 69 26
175 21 241 -10z m6719 -255 c472 -375 1085 -759 1678 -1051 l207 -101 -147
-116 c-414 -327 -750 -646 -1198 -1138 l-41 -44 -142 68 c-187 88 -393 174
-618 256 -100 37 -184 69 -187 72 -3 2 20 58 49 124 156 345 260 707 313 1084
23 167 24 676 2 823 -9 53 -14 97 -12 97 2 0 45 -33 96 -74z m13758 -18 c239
-171 475 -408 615 -618 80 -121 165 -299 199 -415 104 -361 77 -831 -60 -1060
-35 -57 -82 -115 -95 -115 -3 0 -14 15 -24 33 -32 54 -141 189 -198 243 -107
103 -210 178 -348 253 l-69 37 54 42 c143 112 220 296 195 470 -30 213 -168
439 -353 578 -118 89 -297 161 -437 178 -30 4 -72 9 -92 12 l-38 6 166 104
c91 57 224 144 297 194 73 49 135 90 138 90 3 0 26 -14 50 -32z m11743 -198
c-260 -1161 -1305 -2100 -2714 -2439 -526 -127 -1116 -166 -1668 -111 -594 60
-1171 219 -1691 466 -112 54 -132 66 -126 81 24 61 98 295 120 383 14 58 28
110 30 117 3 8 45 -7 127 -43 529 -238 1145 -389 1766 -435 326 -23 818 -4
1148 45 1077 162 2040 680 2629 1413 144 180 330 474 381 601 9 24 18 41 20
39 2 -1 -8 -55 -22 -117z m-12304 -220 c271 -34 494 -164 639 -374 47 -67 47
-67 -41 -86 l-58 -13 -53 50 c-90 85 -205 114 -294 73 -56 -25 -71 -56 -55
-116 16 -58 107 -220 147 -261 55 -55 134 -63 218 -21 64 32 90 114 66 207 -5
17 56 41 110 44 34 2 35 1 63 -70 80 -207 47 -395 -96 -537 -34 -34 -87 -75
-118 -91 -32 -17 -58 -32 -58 -36 0 -3 22 -13 49 -23 74 -26 215 -109 317
-187 129 -97 246 -224 323 -352 23 -37 23 -39 5 -52 -76 -57 -275 -126 -407
-140 l-64 -7 -99 94 c-55 51 -150 140 -211 196 l-112 104 16 25 c24 36 23 224
-1 313 -42 153 -115 300 -150 300 -39 0 -83 -148 -94 -318 l-7 -110 -145 125
c-204 176 -585 495 -780 652 -91 74 -166 136 -168 140 -1 3 46 30 105 60 60
29 183 93 275 142 l166 89 87 -55 c83 -52 179 -95 210 -95 35 0 3 80 -69 178
-26 35 -44 67 -41 72 8 13 111 70 143 80 38 12 85 12 182 0z m-16266 -95 c61
-31 98 -84 104 -149 5 -67 -9 -112 -53 -163 l-35 -41 34 -36 c19 -19 40 -52
46 -72 26 -79 -15 -185 -96 -246 -67 -52 -133 -73 -224 -73 -93 1 -154 27
-206 91 -60 73 -39 72 -654 10 -300 -31 -558 -58 -575 -60 -25 -4 -70 22 -289
167 -166 110 -252 173 -240 175 10 1 386 40 835 86 585 60 825 89 847 100 16
8 41 29 54 46 83 109 120 141 201 171 69 26 194 23 251 -6z m19087 -540 c797
-760 849 -809 877 -825 18 -9 70 -16 152 -20 107 -5 133 -9 182 -32 67 -31
135 -91 177 -157 107 -167 5 -352 -195 -354 l-62 -1 -4 -57 c-5 -75 -38 -125
-109 -164 -47 -26 -64 -30 -134 -30 -71 0 -88 4 -150 34 -82 41 -161 115 -194
184 -25 51 -29 109 -17 212 6 53 4 64 -16 96 -13 19 -228 231 -478 469 -250
238 -456 436 -458 440 -8 20 -87 690 -81 688 4 -2 234 -219 510 -483z m-23572
89 c42 -12 66 -29 116 -79 34 -35 75 -67 91 -71 16 -4 269 17 595 51 l568 58
256 -168 c140 -92 254 -170 251 -172 -2 -2 -109 -15 -237 -28 -1162 -120
-1415 -147 -1443 -159 -17 -7 -41 -24 -52 -37 -102 -114 -118 -128 -176 -154
-149 -67 -311 -34 -365 75 -40 79 -27 160 37 234 l33 37 -33 32 c-59 58 -73
118 -45 198 31 88 96 146 202 179 72 23 134 25 202 4z m5446 -1234 c1219 -102
2414 -563 3505 -1354 169 -123 415 -320 580 -465 1140 -1006 1991 -2319 2395
-3696 174 -594 260 -1137 272 -1730 12 -608 -53 -1118 -213 -1665 -411 -1409
-1445 -2493 -2814 -2951 -319 -106 -692 -186 -1050 -224 -206 -23 -655 -30
-880 -16 -1484 96 -2946 736 -4205 1840 -162 142 -574 555 -720 721 -725 829
-1259 1748 -1585 2727 -360 1085 -443 2193 -240 3199 247 1220 914 2234 1895
2880 680 447 1443 692 2320 744 170 10 561 4 740 -10z m-6564 -496 c210 -247
525 -508 832 -690 231 -138 583 -296 820 -369 l88 -28 -68 -62 c-37 -35 -111
-110 -163 -168 l-95 -105 -80 40 c-208 105 -443 264 -655 444 -94 79 -293 281
-355 359 -22 28 -43 52 -46 55 -17 13 -176 243 -220 318 -53 89 -144 267 -160
311 l-9 26 21 -25 c11 -14 52 -61 90 -106z m17106 -41 c23 -16 64 -55 92 -89
l51 -60 78 14 c73 13 129 12 267 -4 l51 -6 44 58 c50 64 120 114 161 114 59 0
62 -96 9 -284 l-28 -100 30 -90 c33 -101 46 -216 29 -258 -9 -23 -17 -28 -46
-28 -38 0 -110 34 -162 75 l-31 26 -25 -54 c-29 -64 -80 -107 -137 -114 -36
-5 -40 -3 -40 16 0 14 9 25 25 31 35 13 52 52 37 85 -10 22 -18 25 -67 25 -49
0 -57 -3 -67 -25 -15 -32 2 -72 36 -85 18 -7 23 -14 19 -29 -14 -54 -131 8
-174 91 -10 21 -19 45 -19 55 0 13 -7 10 -32 -14 -43 -40 -107 -72 -162 -79
l-44 -6 -8 47 c-10 68 1 149 33 246 l28 84 -27 105 c-65 248 -38 333 79 253z
m128 -684 c4 -12 23 -39 44 -62 108 -120 289 -97 362 46 l20 38 35 -26 c45
-35 113 -65 147 -65 15 0 27 -5 27 -11 0 -22 -109 -116 -176 -151 -106 -56
-171 -71 -280 -66 -87 4 -99 7 -188 51 -90 45 -206 138 -206 165 0 5 21 15 46
21 55 14 115 43 133 65 18 22 28 20 36 -5z m-354 -158 c16 -17 29 -40 29 -54
0 -14 6 -29 13 -35 16 -13 1084 -432 1102 -432 8 0 30 9 50 21 80 47 163 -29
120 -111 -9 -17 -22 -33 -30 -36 -9 -4 -14 -20 -13 -46 1 -54 -36 -92 -87 -91
-45 1 -72 25 -85 74 l-10 38 -223 87 c-122 48 -330 129 -462 181 -132 52 -282
110 -334 131 -91 35 -94 36 -123 19 -55 -31 -110 -21 -134 25 -19 37 -10 81
22 107 18 14 24 29 24 57 1 85 83 123 141 65z m1222 18 c31 -14 50 -49 49 -90
0 -23 6 -38 23 -51 31 -25 40 -69 21 -106 -24 -46 -79 -56 -134 -25 -29 17
-31 16 -204 -51 l-174 -68 -95 38 c-51 20 -97 40 -102 44 -4 3 95 46 220 94
126 49 238 95 251 102 13 9 22 24 22 40 0 31 50 84 79 84 11 0 31 -5 44 -11z
m4699 -326 c543 -731 906 -1247 1408 -1998 700 -1048 1280 -1996 1820 -2970
194 -349 274 -511 294 -590 88 -354 -76 -727 -388 -880 -141 -69 -193 -80
-386 -79 -150 0 -173 3 -255 27 -120 37 -288 122 -405 205 -167 119 -397 355
-569 582 -82 108 -142 150 -215 150 -51 0 -113 -28 -147 -66 -15 -16 -97 -146
-184 -289 -86 -143 -168 -270 -182 -282 -32 -30 -75 -29 -110 1 l-28 24 0 214
c0 117 6 317 14 443 15 252 10 858 -8 954 -6 29 -18 68 -28 87 -10 19 -571
694 -1248 1500 -676 806 -1234 1477 -1239 1489 -21 52 209 459 385 681 265
335 595 641 924 857 114 75 322 187 347 187 10 0 87 -95 200 -247z m-5427
-153 l40 -17 -30 -12 c-16 -7 -128 -50 -247 -97 l-218 -85 -10 -38 c-13 -49
-40 -73 -84 -74 -52 -1 -86 34 -86 89 0 27 -5 44 -14 47 -24 10 -48 66 -41 96
16 62 74 86 131 52 19 -12 41 -21 49 -21 7 0 87 29 176 64 l163 63 66 -24 c36
-14 83 -33 105 -43z m-15431 -272 c-68 -119 -222 -443 -277 -583 -389 -988
-475 -2104 -251 -3275 229 -1199 804 -2410 1627 -3423 356 -440 840 -924 1272
-1273 516 -417 1118 -789 1701 -1049 1531 -686 3149 -791 4489 -290 77 29 167
64 200 79 l60 26 -30 -25 c-65 -55 -267 -194 -392 -271 -1335 -822 -3127 -892
-4853 -189 -1689 688 -3158 2047 -4031 3730 -376 725 -634 1519 -743 2285 -39
269 -56 481 -63 760 -32 1361 415 2614 1241 3478 43 45 80 82 82 82 2 0 -12
-28 -32 -62z m18346 -1398 c371 -397 374 -399 458 -443 91 -48 172 -67 283
-67 l94 0 183 -219 c100 -120 182 -221 182 -224 0 -2 -53 -44 -117 -93 -140
-104 -351 -273 -410 -327 -40 -37 -63 -41 -63 -13 0 29 -144 297 -207 386 -39
55 -129 156 -213 240 -149 149 -266 240 -418 326 -54 31 -84 54 -87 68 -2 11
-20 174 -40 361 -19 187 -38 360 -41 385 l-6 45 49 -50 c27 -27 185 -196 353
-375z m5865 0 c1015 -63 1897 -347 2647 -851 225 -151 431 -324 635 -532 350
-358 614 -757 799 -1207 516 -1260 316 -2732 -551 -4051 -445 -676 -1066
-1292 -1790 -1776 -1630 -1089 -3639 -1467 -5384 -1013 -233 61 -646 201 -674
229 -5 5 -15 67 -23 137 -26 229 -67 488 -110 701 l-6 32 118 -60 c397 -199
809 -328 1349 -424 638 -113 1208 -124 1820 -34 1022 150 2031 578 2846 1209
400 310 789 710 1126 1160 444 594 726 1230 837 1891 70 415 59 884 -30 1271
-394 1720 -2105 2816 -4269 2737 -121 -5 -283 -15 -360 -23 -109 -12 -143 -12
-151 -3 -24 25 -335 509 -330 514 7 8 294 49 467 68 317 33 733 44 1034 25z
m-5967 -948 c177 -153 359 -434 423 -654 l23 -76 -145 -150 c-79 -82 -182
-194 -229 -250 -47 -55 -86 -99 -88 -98 -4 5 -142 1296 -142 1336 0 21 3 20
48 -16 26 -21 75 -62 110 -92z m1765 -550 l174 -208 -36 -25 c-233 -156 -576
-444 -811 -680 -640 -642 -1075 -1380 -1269 -2154 -24 -99 -71 -322 -71 -341
0 -3 -66 57 -147 134 -82 77 -193 179 -248 226 -66 57 -99 92 -97 104 2 9 26
89 53 177 306 970 953 1902 1830 2636 118 99 429 338 440 339 4 0 85 -94 182
-208z m5810 -576 c67 -45 56 -167 -33 -341 -95 -188 -238 -396 -496 -721 -61
-78 -126 -160 -143 -184 l-31 -43 0 -166 c0 -362 -42 -612 -139 -835 -49 -111
-194 -306 -229 -306 -29 0 -138 21 -151 30 -11 6 -6 18 19 55 54 78 129 248
157 352 31 119 43 352 24 485 -17 115 -72 274 -138 398 -105 196 -286 524
-415 753 -70 125 -128 229 -128 231 0 9 268 -66 395 -109 72 -25 141 -45 155
-45 15 0 59 24 105 57 270 192 586 351 784 394 106 23 224 21 264 -5z m-6546
-708 c-3 -7 -5 -2 -5 12 0 14 2 19 5 13 2 -7 2 -19 0 -25z m10 -95 c-3 -10 -5
-4 -5 12 0 17 2 24 5 18 2 -7 2 -21 0 -30z m10 -100 c-3 -10 -5 -4 -5 12 0 17
2 24 5 18 2 -7 2 -21 0 -30z m10 -100 c-3 -10 -5 -4 -5 12 0 17 2 24 5 18 2
-7 2 -21 0 -30z m10 -100 c-3 -10 -5 -4 -5 12 0 17 2 24 5 18 2 -7 2 -21 0
-30z m10 -100 c-3 -10 -5 -4 -5 12 0 17 2 24 5 18 2 -7 2 -21 0 -30z m10 -100
c-3 -10 -5 -4 -5 12 0 17 2 24 5 18 2 -7 2 -21 0 -30z m10 -100 c-3 -10 -5 -4
-5 12 0 17 2 24 5 18 2 -7 2 -21 0 -30z m10 -100 c-3 -10 -5 -4 -5 12 0 17 2
24 5 18 2 -7 2 -21 0 -30z m10 -100 c-3 -10 -5 -4 -5 12 0 17 2 24 5 18 2 -7
2 -21 0 -30z m9417 -100 c123 -381 179 -749 179 -1173 0 -364 -36 -664 -123
-1016 -558 -2262 -2822 -4127 -5465 -4503 -335 -48 -470 -56 -915 -56 -444 1
-552 7 -885 56 -536 78 -1074 240 -1537 464 l-118 56 0 118 c0 65 -3 187 -7
271 -6 148 -6 153 13 147 10 -3 91 -31 179 -62 1477 -520 3241 -411 4846 300
1598 709 2842 1926 3444 3371 174 416 286 852 341 1319 19 158 27 731 11 788
-4 15 -5 27 -3 27 3 0 21 -48 40 -107z m-9407 0 c-3 -10 -5 -2 -5 17 0 19 2
27 5 18 2 -10 2 -26 0 -35z m-4622 -13 c212 -12 368 -32 560 -71 1378 -280
2626 -1307 3396 -2794 607 -1173 876 -2593 743 -3925 -137 -1380 -686 -2629
-1531 -3485 -198 -202 -317 -305 -518 -455 -354 -261 -700 -443 -1101 -576
-137 -46 -391 -114 -420 -114 -5 0 38 25 96 56 674 358 1252 896 1702 1584
390 595 678 1287 837 2010 98 447 145 823 160 1282 54 1632 -439 3250 -1368
4488 -229 306 -582 685 -851 914 -620 529 -1335 895 -2035 1041 -71 15 -137
30 -145 34 -13 5 101 14 250 19 30 1 132 -3 225 -8z m4632 -77 c-3 -10 -5 -4
-5 12 0 17 2 24 5 18 2 -7 2 -21 0 -30z m-5582 -63 c944 -63 1860 -468 2625
-1162 978 -887 1661 -2141 1939 -3559 39 -199 85 -524 108 -754 22 -228 25
-981 5 -1200 -75 -806 -250 -1486 -552 -2145 -415 -908 -1062 -1660 -1820
-2120 -421 -256 -874 -426 -1342 -504 -231 -39 -368 -50 -633 -50 -269 0 -444
16 -682 60 -1421 262 -2714 1322 -3492 2864 -526 1040 -793 2289 -742 3460 7
151 16 292 19 313 6 35 36 64 337 332 182 161 331 292 331 292 1 -1 -9 -59
-22 -128 -79 -428 -98 -652 -99 -1154 0 -427 4 -508 46 -835 146 -1163 611
-2264 1308 -3100 129 -155 438 -462 591 -588 621 -510 1295 -800 2012 -863
189 -17 516 -7 703 21 1013 151 1903 771 2517 1755 266 426 525 1016 658 1501
317 1157 265 2447 -144 3594 -210 591 -459 1050 -857 1579 -243 324 -473 575
-727 793 -626 536 -1287 835 -2032 919 -151 17 -498 15 -659 -5 -475 -57 -941
-221 -1348 -475 -62 -38 -113 -66 -113 -62 0 4 9 47 19 96 27 126 68 392 86
569 8 83 17 151 18 152 6 7 264 121 347 154 488 194 1066 285 1595 250z m5592
-47 c-3 -10 -5 -2 -5 17 0 19 2 27 5 18 2 -10 2 -26 0 -35z m10 -100 c-3 -10
-5 -2 -5 17 0 19 2 27 5 18 2 -10 2 -26 0 -35z m10 -90 c-3 -10 -5 -4 -5 12 0
17 2 24 5 18 2 -7 2 -21 0 -30z m10 -100 c-3 -10 -5 -4 -5 12 0 17 2 24 5 18
2 -7 2 -21 0 -30z m1183 -48 c72 -25 117 -63 145 -118 29 -60 32 -117 9 -192
-20 -62 -13 -114 19 -149 12 -14 830 -491 1817 -1062 1765 -1020 1796 -1038
1856 -1042 50 -3 71 1 130 26 205 87 390 60 481 -70 39 -56 40 -158 4 -233
-51 -103 -204 -220 -317 -241 -29 -5 -32 -9 -38 -56 -10 -75 -43 -136 -111
-204 -107 -107 -266 -166 -396 -145 -191 31 -270 145 -228 328 10 43 9 55 -8
95 -24 52 112 -29 -1438 866 -528 305 -985 570 -1015 589 -30 19 -161 94 -290
167 -129 72 -386 219 -570 326 l-335 195 -75 -1 c-54 0 -88 -6 -123 -22 -224
-101 -480 4 -480 197 0 143 156 311 332 356 46 11 46 12 53 63 22 147 163 287
339 337 65 18 174 14 239 -10z m1804 -220 c497 -489 1023 -669 1548 -529 187
50 366 155 508 296 l79 79 81 -18 81 -18 -28 -23 c-213 -176 -570 -335 -983
-436 -784 -192 -1362 -90 -1894 333 l-78 63 80 39 c112 54 168 114 282 302
l95 156 54 -62 c30 -34 109 -116 175 -182z m-2977 153 c-2 -13 -4 -5 -4 17 -1
22 1 32 4 23 2 -10 2 -28 0 -40z m10 -100 c-2 -13 -4 -5 -4 17 -1 22 1 32 4
23 2 -10 2 -28 0 -40z m10 -100 c-2 -13 -4 -3 -4 22 0 25 2 35 4 23 2 -13 2
-33 0 -45z m10 -100 c-2 -13 -4 -3 -4 22 0 25 2 35 4 23 2 -13 2 -33 0 -45z
m10 -100 c-2 -13 -4 -3 -4 22 0 25 2 35 4 23 2 -13 2 -33 0 -45z m10 -100 c-2
-13 -4 -3 -4 22 0 25 2 35 4 23 2 -13 2 -33 0 -45z m10 -100 c-2 -13 -4 -3 -4
22 0 25 2 35 4 23 2 -13 2 -33 0 -45z m10 -100 c-2 -13 -4 -3 -4 22 0 25 2 35
4 23 2 -13 2 -33 0 -45z m5980 9 c146 -76 175 -257 64 -403 l-39 -52 43 -35
c57 -48 85 -108 85 -180 0 -124 -74 -235 -200 -301 -181 -96 -359 -79 -485 44
-57 55 -88 70 -149 70 -36 0 -694 -105 -1346 -214 l-145 -25 -160 92 c-401
229 -547 317 -534 321 8 3 489 82 1069 176 580 94 1070 176 1089 182 47 15
104 69 141 134 54 97 143 167 258 205 88 29 239 22 309 -14z m-5970 -109 c-2
-13 -4 -3 -4 22 0 25 2 35 4 23 2 -13 2 -33 0 -45z m10 -100 c-2 -13 -4 -3 -4
22 0 25 2 35 4 23 2 -13 2 -33 0 -45z m10 -90 c-2 -13 -4 -5 -4 17 -1 22 1 32
4 23 2 -10 2 -28 0 -40z m10 -100 c-2 -13 -4 -5 -4 17 -1 22 1 32 4 23 2 -10
2 -28 0 -40z m10 -100 c-2 -13 -4 -5 -4 17 -1 22 1 32 4 23 2 -10 2 -28 0 -40z
m10 -100 c-2 -13 -4 -5 -4 17 -1 22 1 32 4 23 2 -10 2 -28 0 -40z m10 -100
c-2 -13 -4 -3 -4 22 0 25 2 35 4 23 2 -13 2 -33 0 -45z m10 -100 c-2 -13 -4
-3 -4 22 0 25 2 35 4 23 2 -13 2 -33 0 -45z m2197 -285 c281 -161 341 -199
323 -205 -12 -4 -330 -57 -707 -118 -377 -61 -854 -140 -1061 -174 -440 -73
-442 -74 -513 -185 -89 -139 -237 -221 -396 -221 l-56 0 -83 188 c-45 103 -87
199 -93 213 -9 21 -7 31 12 57 l24 32 -42 36 c-62 52 -86 105 -85 185 0 128
80 240 216 305 122 58 221 68 333 33 59 -18 76 -30 134 -89 108 -111 33 -113
883 27 403 67 740 120 749 118 10 -2 173 -92 362 -202z m-9678 -49 c69 -29
156 -99 279 -225 149 -153 200 -215 440 -533 l190 -251 160 -45 c439 -125 659
-234 846 -420 47 -47 107 -116 132 -153 l45 -69 -24 -54 c-101 -229 -301 -401
-574 -495 -52 -18 -97 -34 -99 -35 -2 -2 17 -26 41 -54 91 -104 179 -277 220
-435 26 -102 35 -276 18 -386 -12 -88 -56 -239 -68 -239 -4 0 -36 23 -70 51
l-63 51 8 46 c29 168 -46 337 -166 373 -79 24 -119 -14 -189 -181 -69 -163
-77 -196 -63 -249 21 -78 81 -138 163 -162 54 -15 127 12 177 66 23 25 44 45
47 45 4 0 35 -23 70 -51 l64 -50 -21 -42 c-59 -116 -170 -237 -265 -289 -142
-77 -365 -77 -516 -2 -26 13 -49 24 -51 24 -3 0 4 -30 15 -67 38 -137 51 -252
51 -438 1 -206 -14 -307 -69 -478 -41 -125 -27 -121 -169 -52 -252 122 -526
416 -793 851 -34 55 -70 107 -79 116 -10 8 -61 29 -113 48 -184 63 -427 163
-575 235 -334 164 -489 310 -490 465 0 73 24 120 100 195 126 126 344 205 640
235 61 6 116 17 123 23 6 7 26 69 42 137 110 450 241 748 502 1143 43 65 78
122 78 126 0 4 -23 73 -51 152 -61 172 -121 403 -144 554 -22 137 -17 364 10
437 25 71 55 98 108 98 25 0 62 -7 83 -16z m7611 -941 c-3 -10 -5 -4 -5 12 0
17 2 24 5 18 2 -7 2 -21 0 -30z m10 -100 c-3 -10 -5 -4 -5 12 0 17 2 24 5 18
2 -7 2 -21 0 -30z m-4672 -7 c53 -24 93 -59 136 -116 l27 -35 23 21 c120 109
324 57 411 -103 84 -153 75 -365 -19 -487 -23 -29 -65 -65 -107 -90 -51 -30
-75 -52 -90 -81 -17 -34 -31 -148 -96 -792 l-75 -753 -285 -285 c-157 -157
-286 -281 -288 -276 -2 5 44 486 103 1068 58 583 105 1078 105 1099 0 50 -43
137 -80 164 -40 29 -100 123 -122 192 -39 128 -15 308 55 400 69 92 197 123
302 74z m4682 -88 c-3 -7 -5 -2 -5 12 0 14 2 19 5 13 2 -7 2 -19 0 -25z m10
-100 c-3 -7 -5 -2 -5 12 0 14 2 19 5 13 2 -7 2 -19 0 -25z m10 -100 c-3 -7 -5
-2 -5 12 0 14 2 19 5 13 2 -7 2 -19 0 -25z m10 -95 c-3 -10 -5 -4 -5 12 0 17
2 24 5 18 2 -7 2 -21 0 -30z m10 -100 c-3 -10 -5 -4 -5 12 0 17 2 24 5 18 2
-7 2 -21 0 -30z m10 -100 c-3 -10 -5 -4 -5 12 0 17 2 24 5 18 2 -7 2 -21 0
-30z m10 -100 c-3 -10 -5 -4 -5 12 0 17 2 24 5 18 2 -7 2 -21 0 -30z m-5488
-227 c73 -228 103 -467 104 -816 0 -808 -210 -1332 -698 -1739 -176 -146 -391
-272 -549 -320 -77 -24 -211 -40 -271 -34 l-40 5 32 96 c83 252 101 551 49
825 -8 39 -13 73 -12 74 1 1 24 -5 51 -13 78 -24 228 -29 307 -10 204 48 368
201 471 440 109 253 124 521 42 770 -31 95 -112 257 -162 321 -19 26 -33 48
-31 49 1 2 43 19 91 39 219 89 398 243 497 429 l42 79 24 -50 c12 -28 37 -93
53 -145z m5498 127 c-3 -10 -5 -4 -5 12 0 17 2 24 5 18 2 -7 2 -21 0 -30z m10
-100 c-3 -10 -5 -4 -5 12 0 17 2 24 5 18 2 -7 2 -21 0 -30z m-3209 -69 c66
-33 126 -100 170 -192 29 -61 35 -87 40 -163 5 -86 6 -91 31 -100 122 -44 210
-156 247 -316 41 -173 -30 -363 -158 -427 -73 -36 -122 -34 -220 10 -124 56
-111 63 -388 -208 -129 -127 -801 -799 -1492 -1492 -1413 -1417 -1286 -1275
-1274 -1435 15 -192 -47 -340 -168 -404 -55 -28 -137 -28 -191 0 -119 62 -215
238 -215 394 l0 56 -39 12 c-55 16 -141 98 -178 168 -46 86 -63 155 -63 252 1
192 115 341 262 341 47 0 69 -7 132 -40 79 -42 106 -47 153 -30 32 13 2955
2929 2981 2975 14 25 17 60 17 210 0 173 1 182 26 235 35 75 79 123 141 154
67 33 119 33 186 0z m-1571 -3771 c-108 -1081 -109 -1097 -93 -1149 11 -34 34
-72 70 -112 129 -145 160 -337 81 -509 -50 -111 -118 -157 -230 -158 -59 0
-78 5 -123 30 -51 28 -89 63 -123 115 l-16 25 -39 -27 c-55 -38 -87 -48 -153
-48 -73 0 -144 34 -201 96 -170 184 -132 535 67 630 71 33 119 77 133 120 6
18 44 364 84 769 l73 737 289 289 c159 159 289 289 289 289 1 0 -48 -493 -108
-1097z"/>
<path d="M12400 29563 c-35 -13 -81 -70 -96 -118 -8 -27 -26 -135 -39 -240
-23 -184 -24 -196 -11 -370 24 -316 53 -354 441 -588 235 -142 381 -221 535
-292 255 -116 558 -215 844 -274 278 -58 729 -108 866 -96 122 10 260 34 290
50 119 62 30 247 -247 516 -359 348 -938 740 -1523 1033 -539 269 -953 418
-1060 379z"/>
<path d="M22160 29540 c-116 -37 -652 -246 -845 -330 -367 -160 -849 -442
-1262 -738 -409 -293 -723 -626 -723 -767 0 -77 71 -110 292 -134 321 -36
1163 109 1623 279 455 168 977 454 1123 615 25 28 59 79 75 114 27 58 31 78
37 195 11 207 -4 496 -29 585 -44 152 -87 192 -202 190 -35 0 -75 -4 -89 -9z"/>
<path d="M16800 27175 c-637 -81 -1105 -336 -1250 -683 -77 -184 -77 -394 0
-635 66 -205 166 -363 340 -537 265 -265 537 -398 958 -466 l32 -5 0 -311 0
-311 -35 -33 c-68 -63 -226 -110 -490 -144 -337 -43 -636 -10 -903 100 -258
106 -436 263 -537 474 -50 106 -72 187 -84 318 -11 111 -27 154 -70 191 -91
76 -230 48 -281 -58 -26 -53 -26 -129 -1 -277 35 -199 111 -381 226 -534 54
-71 63 -91 84 -175 60 -246 182 -548 322 -799 126 -225 304 -486 402 -587 89
-92 227 -95 308 -7 55 60 55 73 33 785 l-6 185 214 0 c383 0 726 67 925 180
l77 45 26 -20 c40 -29 156 -85 235 -114 95 -34 267 -71 455 -99 202 -29 550
-32 734 -5 65 10 120 16 122 14 2 -2 -18 -199 -46 -438 -56 -495 -56 -493 15
-564 52 -53 113 -71 183 -54 41 10 61 26 158 124 403 409 691 935 796 1454 16
82 28 115 53 150 18 26 53 87 78 136 76 154 114 292 124 456 5 97 4 111 -16
153 -54 111 -192 138 -287 54 -50 -44 -55 -57 -70 -191 -31 -265 -147 -465
-363 -627 -176 -132 -441 -235 -730 -285 -439 -75 -1113 18 -1258 174 -23 24
-23 26 -23 337 l0 313 38 6 c572 98 1084 454 1293 899 83 179 120 424 86 583
-33 155 -96 270 -212 388 -210 213 -550 362 -985 430 -147 23 -519 29 -670 10z
m514 -320 c143 -19 266 -57 309 -95 28 -25 30 -31 22 -56 -19 -54 -151 -101
-365 -130 -126 -16 -469 -18 -595 -3 -126 15 -272 54 -317 84 -43 29 -52 70
-20 98 45 41 169 78 342 102 135 18 482 18 624 0z m2120 -2961 c-85 -234 -239
-510 -405 -729 -80 -105 -248 -299 -255 -293 -4 5 92 848 97 852 2 1 54 19
114 40 125 43 343 147 425 204 30 21 56 35 58 31 1 -3 -14 -51 -34 -105z
m-4199 -50 c84 -39 255 -99 351 -124 l42 -10 6 -228 c3 -125 8 -312 11 -417
l5 -190 -20 25 c-134 168 -305 441 -410 655 -57 118 -160 361 -160 380 0 3 19
-7 43 -22 23 -14 83 -45 132 -69z"/>
<path d="M32735 24693 c-42 -22 -95 -74 -95 -93 0 -23 45 -135 76 -189 35 -59
177 -206 216 -222 25 -10 31 -10 39 2 35 55 -36 303 -126 445 -52 81 -58 85
-110 57z"/>
<path d="M33448 23814 c-26 -8 -22 -19 16 -56 42 -41 161 -110 254 -148 95
-38 234 -72 266 -64 31 7 116 80 116 100 0 21 -35 39 -165 83 -185 62 -423
104 -487 85z"/>
<path d="M8275 23800 c-3 -5 -1 -10 4 -10 6 0 11 5 11 10 0 6 -2 10 -4 10 -3
0 -8 -4 -11 -10z"/>
<path d="M5736 23193 c-29 -30 -51 -72 -62 -117 -6 -26 0 -34 61 -92 94 -87
224 -153 364 -185 55 -12 81 -4 81 26 0 61 -168 246 -305 336 -95 63 -108 66
-139 32z"/>
<path d="M7380 22843 c-243 -25 -580 -126 -580 -174 0 -37 236 -67 385 -49
135 16 222 39 254 65 15 13 38 50 50 81 31 82 19 90 -109 77z"/>
<path d="M8440 19380 c-1456 -100 -2611 -861 -3209 -2112 -340 -712 -478
-1557 -395 -2432 19 -201 76 -593 115 -791 87 -440 246 -937 434 -1355 520
-1158 1409 -2207 2472 -2918 510 -341 1003 -578 1657 -797 632 -211 1160 -295
1776 -282 364 8 603 38 925 117 1070 263 1933 949 2424 1928 409 816 544 1811
385 2842 -198 1284 -805 2529 -1740 3570 -144 160 -484 496 -642 633 -1047
914 -2260 1465 -3477 1582 -199 19 -559 26 -725 15z m-1376 -1804 c72 -35 168
-123 218 -200 95 -148 104 -329 22 -448 -34 -49 -47 -107 -34 -161 5 -24 188
-381 406 -793 l397 -749 -88 -445 c-48 -245 -91 -450 -94 -456 -3 -7 -141 243
-305 555 -910 1721 -891 1686 -968 1727 -15 8 -58 21 -95 30 -231 53 -404 264
-407 494 -1 102 22 160 86 214 70 60 102 71 208 71 76 0 104 -5 142 -22 l47
-21 12 36 c18 58 68 129 106 153 65 41 103 49 199 46 75 -2 100 -8 148 -31z
m1552 -107 c89 -28 197 -108 263 -196 49 -66 55 -71 78 -62 40 15 163 10 219
-9 152 -53 290 -184 348 -332 27 -67 32 -193 12 -264 -32 -108 -130 -176 -256
-176 -70 0 -137 -32 -163 -77 -28 -49 -960 -4676 -952 -4726 8 -55 37 -106 96
-174 162 -184 196 -409 83 -541 -53 -62 -104 -85 -189 -85 -156 0 -325 96
-419 237 -35 53 -37 54 -68 45 -52 -14 -158 -10 -214 9 -169 59 -313 205 -359
366 -22 76 -17 215 9 266 44 85 108 126 223 140 88 11 129 32 157 79 11 19 36
117 57 220 21 102 162 798 314 1546 151 748 282 1394 291 1435 103 501 294
1489 294 1519 0 60 -25 118 -83 190 -66 81 -92 126 -117 202 -23 69 -26 185
-6 242 31 85 97 147 180 168 42 10 127 1 202 -22z m1914 -1474 c257 -37 611
-151 915 -295 187 -88 159 -86 357 -35 367 93 673 143 918 152 187 6 270 -6
374 -55 148 -69 195 -184 151 -369 -44 -186 -227 -428 -468 -618 -48 -38 -90
-79 -93 -91 -3 -13 15 -78 46 -162 112 -307 184 -593 214 -847 20 -174 37
-464 34 -601 -3 -133 -12 -119 156 -247 245 -185 474 -404 595 -566 87 -118
152 -254 158 -334 5 -57 3 -65 -22 -95 -87 -103 -396 -77 -880 73 -82 26 -282
94 -445 151 l-295 105 -190 -60 c-218 -70 -379 -113 -515 -138 -136 -25 -434
-25 -550 0 -94 20 -215 60 -272 88 -48 25 -53 49 -52 259 0 138 4 178 22 245
33 120 121 290 211 409 l79 104 -63 17 c-146 39 -353 153 -476 262 -182 161
-312 373 -363 594 l-14 58 61 -5 c117 -10 147 -15 147 -27 0 -28 52 -119 92
-163 59 -64 115 -100 187 -120 52 -15 69 -15 117 -5 73 17 94 48 94 141 -1 74
-51 333 -73 376 -21 41 -65 80 -112 100 -53 22 -160 23 -201 1 -71 -37 -124
-130 -124 -216 l0 -31 -92 6 c-51 4 -97 11 -103 16 -18 17 -19 229 0 320 44
223 208 400 437 473 42 13 99 27 127 31 l50 6 -105 101 c-238 227 -398 475
-493 762 -21 66 -42 139 -46 162 l-6 41 73 16 c40 8 84 17 98 19 61 10 244 5
340 -8z m-495 -325 c83 -223 229 -450 404 -633 46 -48 82 -89 80 -90 -2 -2
-26 -12 -54 -22 -190 -68 -340 -193 -413 -346 -90 -185 -102 -398 -37 -654 60
-236 158 -408 333 -579 124 -122 299 -234 457 -291 28 -10 52 -20 54 -21 2 -2
-24 -44 -58 -94 -166 -249 -238 -525 -202 -777 4 -29 6 -53 4 -53 -10 0 -163
109 -222 157 -388 324 -814 955 -992 1473 -168 485 -170 902 -8 1394 119 364
311 653 509 768 l64 38 26 -98 c15 -53 39 -131 55 -172z m-729 -2770 c318
-602 592 -1110 608 -1128 38 -44 88 -68 177 -87 164 -34 291 -132 367 -282 73
-147 77 -274 12 -377 -32 -49 -101 -100 -160 -116 -56 -16 -150 -11 -210 10
-30 11 -60 19 -65 20 -6 0 -18 -23 -28 -51 -22 -60 -75 -122 -131 -152 -35
-19 -57 -22 -147 -22 -100 0 -108 2 -174 35 -183 93 -314 325 -285 503 4 28
25 86 45 127 32 65 36 82 31 128 -5 59 26 -2 -485 962 -182 343 -331 630 -331
636 0 6 41 210 90 453 50 244 90 445 90 449 0 3 4 2 8 -3 5 -6 269 -503 588
-1105z"/>
<path d="M11032 15257 c-23 -24 -72 -149 -98 -247 -46 -175 -32 -506 24 -572
21 -25 26 -23 72 18 120 109 268 468 287 695 6 73 5 77 -18 92 -32 20 -117 37
-188 37 -47 0 -61 -4 -79 -23z"/>
<path d="M11123 13464 c-12 -33 7 -135 51 -270 53 -161 113 -291 193 -413 117
-180 147 -201 284 -201 89 0 119 10 119 42 0 25 -117 251 -185 358 -118 185
-302 408 -389 472 -44 32 -64 35 -73 12z"/>
<path d="M13535 12060 c3 -5 11 -10 16 -10 6 0 7 5 4 10 -3 6 -11 10 -16 10
-6 0 -7 -4 -4 -10z"/>
<path d="M19617 19024 c-15 -16 -6 -54 19 -73 41 -32 139 -57 164 -41 19 12
-2 35 -72 77 -57 34 -99 48 -111 37z"/>
<path d="M20135 19005 c-27 -13 -66 -38 -85 -54 -28 -24 -32 -32 -21 -40 20
-13 77 -3 139 25 49 21 52 25 52 58 0 44 -14 46 -85 11z"/>
<path d="M29970 14199 c0 -5 5 -7 10 -4 6 3 10 8 10 11 0 2 -4 4 -10 4 -5 0
-10 -5 -10 -11z"/>
<path d="M16520 10000 c0 -5 5 -10 11 -10 5 0 7 5 4 10 -3 6 -8 10 -11 10 -2
0 -4 -4 -4 -10z"/>
<path d="M17556 8737 c-38 -28 -59 -427 -35 -658 13 -133 36 -233 59 -261 18
-22 18 -22 39 -4 52 47 127 323 140 518 9 129 2 259 -17 294 -13 25 -107 99
-143 113 -19 7 -32 6 -43 -2z"/>
<path d="M17116 7016 c-189 -79 -496 -329 -496 -404 0 -30 83 -115 141 -146
33 -18 37 -18 70 -2 66 31 199 146 264 228 80 102 167 268 163 312 -3 28 -6
31 -43 34 -25 1 -62 -7 -99 -22z"/>
</g>
</svg>
