<?xml version="1.0" encoding="UTF-8"?>
<!DOCTYPE svg PUBLIC "-//W3C//DTD SVG 1.1//EN" "http://www.w3.org/Graphics/SVG/1.1/DTD/svg11.dtd">
<svg xmlns="http://www.w3.org/2000/svg" version="1.1" width="64px" height="64px" style="shape-rendering:geometricPrecision; text-rendering:geometricPrecision; image-rendering:optimizeQuality; fill-rule:evenodd; clip-rule:evenodd" xmlns:xlink="http://www.w3.org/1999/xlink">
<g><path style="opacity:0.421" fill="#130402" d="M 63.5,20.5 C 63.5,21.8333 63.5,23.1667 63.5,24.5C 62.1667,29.1667 62.1667,33.8333 63.5,38.5C 63.5,39.8333 63.5,41.1667 63.5,42.5C 61.5673,46.698 58.9006,50.3647 55.5,53.5C 55.1667,52.1667 54.8333,52.1667 54.5,53.5C 53.8333,53.5 53.5,53.8333 53.5,54.5C 52.8333,54.5 52.5,54.8333 52.5,55.5C 51.5084,55.3284 50.8417,55.6618 50.5,56.5C 49.8333,56.5 49.5,56.8333 49.5,57.5C 48.8333,57.5 48.5,57.8333 48.5,58.5C 47.5084,58.3284 46.8417,58.6618 46.5,59.5C 45.5084,59.3284 44.8417,59.6618 44.5,60.5C 43.5084,60.3284 42.8417,60.6618 42.5,61.5C 40.901,61.2322 39.5676,61.5655 38.5,62.5C 33.8333,62.5 29.1667,62.5 24.5,62.5C 18.2258,60.6056 12.7258,57.2723 8,52.5C 7.66667,52.8333 7.33333,53.1667 7,53.5C 2.73422,49.8259 0.900883,45.3259 1.5,40C 0.902115,34.6872 0.235448,29.5206 -0.5,24.5C -0.5,23.1667 -0.5,21.8333 -0.5,20.5C 1.48249,16.5527 3.98249,12.8861 7,9.5C 7.33333,9.83333 7.66667,10.1667 8,10.5C 17.7415,0.856461 29.2415,-1.97687 42.5,2C 45.2487,3.12272 47.7487,4.62272 50,6.5C 51.8402,5.16686 52.3402,5.33353 51.5,7C 53.365,9.6309 55.5316,11.1309 58,11.5C 59.8588,14.5638 61.6921,17.5638 63.5,20.5 Z"/></g>
<g><path style="opacity:0.999" fill="#e43a27" d="M 41.5,4.5 C 41.6618,5.59176 41.3284,6.92509 40.5,8.5C 40.5,8.83333 40.5,9.16667 40.5,9.5C 39.1667,10.1667 38.1667,11.1667 37.5,12.5C 33.8183,12.6653 30.1516,12.4986 26.5,12C 25.5291,10.5187 24.1958,9.68535 22.5,9.5C 21.209,9.26269 20.209,9.59603 19.5,10.5C 16.6057,11.8823 14.1057,13.8823 12,16.5C 11.5079,19.6392 10.1745,22.3058 8,24.5C 7.33333,29.1667 7.33333,33.8333 8,38.5C 8.56375,40.8867 9.73042,42.8867 11.5,44.5C 11.2594,46.8984 11.9261,48.8984 13.5,50.5C 14.287,52.1042 15.6203,52.7709 17.5,52.5C 17.2627,51.209 17.596,50.209 18.5,49.5C 18.8333,49.5 19.1667,49.5 19.5,49.5C 20.038,51.1172 20.3713,52.7839 20.5,54.5C 27.8409,54.6663 35.1742,54.4997 42.5,54C 43.1667,53.6667 43.8333,53.3333 44.5,53C 43.1602,50.8215 43.4935,50.3215 45.5,51.5C 47.1667,52.1667 48.8333,52.8333 50.5,53.5C 42.7813,60.1585 33.7813,62.3252 23.5,60C 6.68373,53.5413 -0.149605,41.3747 3,23.5C 10.2527,5.45595 23.0861,-0.877379 41.5,4.5 Z"/></g>
<g><path style="opacity:1" fill="#e53825" d="M 41.5,4.5 C 50.8131,7.64776 56.9798,13.9811 60,23.5C 62.8755,35.0219 60.0422,44.6885 51.5,52.5C 50.7659,51.2921 50.4326,49.9587 50.5,48.5C 51.4345,47.4324 51.7678,46.099 51.5,44.5C 53.4095,43.0254 54.5762,41.0254 55,38.5C 57.8338,24.5054 53.0005,14.5054 40.5,8.5C 41.3284,6.92509 41.6618,5.59176 41.5,4.5 Z"/></g>
<g><path style="opacity:1" fill="#ececed" d="M 22.5,9.5 C 23.2899,10.7942 24.2899,11.9609 25.5,13C 29.6888,13.8119 33.6888,13.6453 37.5,12.5C 38.1667,11.1667 39.1667,10.1667 40.5,9.5C 41.5,9.5 42.5,9.5 43.5,9.5C 43.5,11.5 43.5,13.5 43.5,15.5C 41.3382,17.1689 41.0048,19.1689 42.5,21.5C 42.5,23.8333 42.5,26.1667 42.5,28.5C 40.5165,28.6168 38.8498,27.9501 37.5,26.5C 36.0815,27.0047 35.4148,28.0047 35.5,29.5C 34.2022,30.1157 33.2022,30.1157 32.5,29.5C 34.1368,27.8763 33.8034,26.8763 31.5,26.5C 29.1966,26.8763 28.8632,27.8763 30.5,29.5C 30.5654,29.9382 30.3988,30.2716 30,30.5C 28.3257,29.3235 26.8257,27.9902 25.5,26.5C 24.4777,26.8555 23.811,27.5222 23.5,28.5C 22.5,28.5 21.5,28.5 20.5,28.5C 20.5,26.1667 20.5,23.8333 20.5,21.5C 20.4476,17.8019 20.1143,14.1352 19.5,10.5C 20.209,9.59603 21.209,9.26269 22.5,9.5 Z"/></g>
<g><path style="opacity:1" fill="#71372c" d="M 22.5,9.5 C 24.1958,9.68535 25.5291,10.5187 26.5,12C 30.1516,12.4986 33.8183,12.6653 37.5,12.5C 33.6888,13.6453 29.6888,13.8119 25.5,13C 24.2899,11.9609 23.2899,10.7942 22.5,9.5 Z"/></g>
<g><path style="opacity:1" fill="#d95941" d="M 43.5,15.5 C 49.4094,18.7994 52.4094,23.9661 52.5,31C 52.3538,33.7598 51.6872,36.2598 50.5,38.5C 50.5,37.1667 50.5,35.8333 50.5,34.5C 50.3427,30.7271 48.676,29.7271 45.5,31.5C 44.3738,33.5363 42.7071,34.8697 40.5,35.5C 38.597,35.7959 36.9303,36.4625 35.5,37.5C 32.8333,37.5 30.1667,37.5 27.5,37.5C 27.0825,36.7784 26.4158,36.2784 25.5,36C 25.7284,35.6012 26.0618,35.4346 26.5,35.5C 32.2356,36.4447 37.2356,35.1114 41.5,31.5C 42.9723,29.8825 43.639,27.8825 43.5,25.5C 43.4892,23.9549 43.1558,22.6216 42.5,21.5C 41.0048,19.1689 41.3382,17.1689 43.5,15.5 Z"/></g>
<g><path style="opacity:1" fill="#e5543c" d="M 19.5,10.5 C 20.1143,14.1352 20.4476,17.8019 20.5,21.5C 19.3622,24.3035 19.1955,27.3035 20,30.5C 20.3826,31.056 20.8826,31.3893 21.5,31.5C 21.9528,32.4584 22.6195,33.2917 23.5,34C 22.552,34.4828 21.552,34.6495 20.5,34.5C 19.1001,33.9002 18.1001,32.9002 17.5,31.5C 14.324,29.7271 12.6573,30.7271 12.5,34.5C 11.1667,35.8333 11.1667,37.1667 12.5,38.5C 15.3447,39.3438 18.3447,40.0104 21.5,40.5C 21.8333,40.5 22.1667,40.5 22.5,40.5C 22.2178,41.7777 21.5511,42.7777 20.5,43.5C 17.9039,44.2653 15.2372,44.5987 12.5,44.5C 12.1667,44.5 11.8333,44.5 11.5,44.5C 9.73042,42.8867 8.56375,40.8867 8,38.5C 7.33333,33.8333 7.33333,29.1667 8,24.5C 10.1745,22.3058 11.5079,19.6392 12,16.5C 14.1057,13.8823 16.6057,11.8823 19.5,10.5 Z"/></g>
<g><path style="opacity:1" fill="#323232" d="M 23.5,23.5 C 25.2637,22.2878 26.9303,22.6212 28.5,24.5C 26.8084,25.2008 25.1417,24.8675 23.5,23.5 Z"/></g>
<g><path style="opacity:1" fill="#2a2a2a" d="M 36.5,22.5 C 37.552,22.3505 38.552,22.5172 39.5,23C 38.1095,24.02 36.6095,24.8534 35,25.5C 34.7613,24.212 35.2613,23.212 36.5,22.5 Z"/></g>
<g><path style="opacity:1" fill="#716365" d="M 20.5,21.5 C 20.5,23.8333 20.5,26.1667 20.5,28.5C 21.5,28.5 22.5,28.5 23.5,28.5C 22.4489,29.2223 21.7822,30.2223 21.5,31.5C 20.8826,31.3893 20.3826,31.056 20,30.5C 19.1955,27.3035 19.3622,24.3035 20.5,21.5 Z"/></g>
<g><path style="opacity:1" fill="#252525" d="M 32.5,29.5 C 31.8333,29.5 31.1667,29.5 30.5,29.5C 28.8632,27.8763 29.1966,26.8763 31.5,26.5C 33.8034,26.8763 34.1368,27.8763 32.5,29.5 Z"/></g>
<g><path style="opacity:1" fill="#919198" d="M 42.5,21.5 C 43.1558,22.6216 43.4892,23.9549 43.5,25.5C 43.639,27.8825 42.9723,29.8825 41.5,31.5C 40.0971,29.0324 38.0971,28.3657 35.5,29.5C 35.4148,28.0047 36.0815,27.0047 37.5,26.5C 38.8498,27.9501 40.5165,28.6168 42.5,28.5C 42.5,26.1667 42.5,23.8333 42.5,21.5 Z"/></g>
<g><path style="opacity:1" fill="#5d4645" d="M 17.5,31.5 C 15.0411,31.31 13.3745,32.31 12.5,34.5C 12.6573,30.7271 14.324,29.7271 17.5,31.5 Z"/></g>
<g><path style="opacity:1" fill="#604948" d="M 45.5,31.5 C 48.676,29.7271 50.3427,30.7271 50.5,34.5C 49.6255,32.31 47.9589,31.31 45.5,31.5 Z"/></g>
<g><path style="opacity:1" fill="#c5cad8" d="M 30.5,29.5 C 31.1667,29.5 31.8333,29.5 32.5,29.5C 33.2022,30.1157 34.2022,30.1157 35.5,29.5C 38.0971,28.3657 40.0971,29.0324 41.5,31.5C 37.2356,35.1114 32.2356,36.4447 26.5,35.5C 25.2402,33.6329 23.5735,32.2995 21.5,31.5C 21.7822,30.2223 22.4489,29.2223 23.5,28.5C 23.811,27.5222 24.4777,26.8555 25.5,26.5C 26.8257,27.9902 28.3257,29.3235 30,30.5C 30.3988,30.2716 30.5654,29.9382 30.5,29.5 Z"/></g>
<g><path style="opacity:1" fill="#e24f38" d="M 40.5,9.5 C 40.5,9.16667 40.5,8.83333 40.5,8.5C 53.0005,14.5054 57.8338,24.5054 55,38.5C 54.5762,41.0254 53.4095,43.0254 51.5,44.5C 48.2869,44.81 45.2869,44.4767 42.5,43.5C 41.1501,42.1765 41.3167,41.1765 43,40.5C 45.6691,39.9839 48.1691,39.3173 50.5,38.5C 51.6872,36.2598 52.3538,33.7598 52.5,31C 52.4094,23.9661 49.4094,18.7994 43.5,15.5C 43.5,13.5 43.5,11.5 43.5,9.5C 42.5,9.5 41.5,9.5 40.5,9.5 Z"/></g>
<g><path style="opacity:1" fill="#8d5044" d="M 21.5,31.5 C 23.5735,32.2995 25.2402,33.6329 26.5,35.5C 26.0618,35.4346 25.7284,35.6012 25.5,36C 26.4158,36.2784 27.0825,36.7784 27.5,37.5C 24.7594,37.2927 22.4261,36.2927 20.5,34.5C 21.552,34.6495 22.552,34.4828 23.5,34C 22.6195,33.2917 21.9528,32.4584 21.5,31.5 Z"/></g>
<g><path style="opacity:1" fill="#888289" d="M 45.5,31.5 C 45.6162,34.9103 43.9496,36.2436 40.5,35.5C 42.7071,34.8697 44.3738,33.5363 45.5,31.5 Z"/></g>
<g><path style="opacity:1" fill="#e3e6eb" d="M 45.5,31.5 C 47.9589,31.31 49.6255,32.31 50.5,34.5C 50.5,35.8333 50.5,37.1667 50.5,38.5C 46.6279,38.2422 42.9612,38.9089 39.5,40.5C 37.1016,40.7406 35.1016,40.0739 33.5,38.5C 34.4916,38.6716 35.1583,38.3382 35.5,37.5C 36.9303,36.4625 38.597,35.7959 40.5,35.5C 43.9496,36.2436 45.6162,34.9103 45.5,31.5 Z"/></g>
<g><path style="opacity:1" fill="#7c463c" d="M 27.5,37.5 C 30.1667,37.5 32.8333,37.5 35.5,37.5C 35.1583,38.3382 34.4916,38.6716 33.5,38.5C 32.8333,38.5 32.5,38.8333 32.5,39.5C 30.597,39.2041 28.9303,38.5375 27.5,37.5 Z"/></g>
<g><path style="opacity:1" fill="#77463b" d="M 12.5,38.5 C 15.1873,38.3359 17.854,38.5026 20.5,39C 21.056,39.3826 21.3893,39.8826 21.5,40.5C 18.3447,40.0104 15.3447,39.3438 12.5,38.5 Z"/></g>
<g><path style="opacity:1" fill="#8d4132" d="M 50.5,38.5 C 48.1691,39.3173 45.6691,39.9839 43,40.5C 41.3167,41.1765 41.1501,42.1765 42.5,43.5C 41.391,43.4431 40.391,43.1098 39.5,42.5C 39.5,41.8333 39.5,41.1667 39.5,40.5C 42.9612,38.9089 46.6279,38.2422 50.5,38.5 Z"/></g>
<g><path style="opacity:1" fill="#817f83" d="M 33.5,38.5 C 35.1016,40.0739 37.1016,40.7406 39.5,40.5C 39.5,41.1667 39.5,41.8333 39.5,42.5C 36.8427,42.0652 34.5093,41.0652 32.5,39.5C 32.5,38.8333 32.8333,38.5 33.5,38.5 Z"/></g>
<g><path style="opacity:1" fill="#88716f" d="M 22.5,40.5 C 27.2231,41.3697 31.5564,43.0363 35.5,45.5C 32.8333,45.5 30.1667,45.5 27.5,45.5C 27.9175,44.7784 28.5842,44.2784 29.5,44C 26.6275,42.5486 23.6275,42.3819 20.5,43.5C 21.5511,42.7777 22.2178,41.7777 22.5,40.5 Z"/></g>
<g><path style="opacity:1" fill="#5f4443" d="M 11.5,44.5 C 11.8333,44.5 12.1667,44.5 12.5,44.5C 12.8333,46.5 13.1667,48.5 13.5,50.5C 11.9261,48.8984 11.2594,46.8984 11.5,44.5 Z"/></g>
<g><path style="opacity:1" fill="#e4e5e9" d="M 27.5,45.5 C 24.0534,46.083 21.0534,47.4163 18.5,49.5C 17.596,50.209 17.2627,51.209 17.5,52.5C 15.6203,52.7709 14.287,52.1042 13.5,50.5C 13.1667,48.5 12.8333,46.5 12.5,44.5C 15.2372,44.5987 17.9039,44.2653 20.5,43.5C 23.6275,42.3819 26.6275,42.5486 29.5,44C 28.5842,44.2784 27.9175,44.7784 27.5,45.5 Z"/></g>
<g><path style="opacity:1" fill="#93817d" d="M 35.5,45.5 C 38.491,45.1663 40.8243,46.1663 42.5,48.5C 39.8427,48.0652 37.5093,47.0652 35.5,45.5 Z"/></g>
<g><path style="opacity:1" fill="#e2e3e8" d="M 17.5,31.5 C 18.1001,32.9002 19.1001,33.9002 20.5,34.5C 22.4261,36.2927 24.7594,37.2927 27.5,37.5C 28.9303,38.5375 30.597,39.2041 32.5,39.5C 34.5093,41.0652 36.8427,42.0652 39.5,42.5C 40.391,43.1098 41.391,43.4431 42.5,43.5C 45.2869,44.4767 48.2869,44.81 51.5,44.5C 51.7678,46.099 51.4345,47.4324 50.5,48.5C 49.596,49.209 49.2627,50.209 49.5,51.5C 48.1667,51.5 46.8333,51.5 45.5,51.5C 45.5,49.5 44.5,48.5 42.5,48.5C 40.8243,46.1663 38.491,45.1663 35.5,45.5C 31.5564,43.0363 27.2231,41.3697 22.5,40.5C 22.1667,40.5 21.8333,40.5 21.5,40.5C 21.3893,39.8826 21.056,39.3826 20.5,39C 17.854,38.5026 15.1873,38.3359 12.5,38.5C 11.1667,37.1667 11.1667,35.8333 12.5,34.5C 13.3745,32.31 15.0411,31.31 17.5,31.5 Z"/></g>
<g><path style="opacity:1" fill="#844132" d="M 27.5,45.5 C 25.2062,47.3883 22.5395,48.7216 19.5,49.5C 19.1667,49.5 18.8333,49.5 18.5,49.5C 21.0534,47.4163 24.0534,46.083 27.5,45.5 Z"/></g>
<g><path style="opacity:1" fill="#983426" d="M 50.5,48.5 C 50.4326,49.9587 50.7659,51.2921 51.5,52.5C 51.5,53.1667 51.1667,53.5 50.5,53.5C 48.8333,52.8333 47.1667,52.1667 45.5,51.5C 46.8333,51.5 48.1667,51.5 49.5,51.5C 49.2627,50.209 49.596,49.209 50.5,48.5 Z"/></g>
<g><path style="opacity:1" fill="#d24b36" d="M 27.5,45.5 C 30.1667,45.5 32.8333,45.5 35.5,45.5C 37.5093,47.0652 39.8427,48.0652 42.5,48.5C 44.5,48.5 45.5,49.5 45.5,51.5C 43.4935,50.3215 43.1602,50.8215 44.5,53C 43.8333,53.3333 43.1667,53.6667 42.5,54C 35.1742,54.4997 27.8409,54.6663 20.5,54.5C 20.3713,52.7839 20.038,51.1172 19.5,49.5C 22.5395,48.7216 25.2062,47.3883 27.5,45.5 Z"/></g>
<g><path style="opacity:0.012" fill="#000000" d="M 54.5,53.5 C 54.8333,53.5 55.1667,53.5 55.5,53.5C 55.3147,54.1701 54.9813,54.1701 54.5,53.5 Z"/></g>
<g><path style="opacity:0.012" fill="#000000" d="M 53.5,54.5 C 53.8333,54.5 54.1667,54.5 54.5,54.5C 54.3147,55.1701 53.9813,55.1701 53.5,54.5 Z"/></g>
<g><path style="opacity:0.008" fill="#000000" d="M 52.5,55.5 C 52.8333,55.5 53.1667,55.5 53.5,55.5C 53.3147,56.1701 52.9813,56.1701 52.5,55.5 Z"/></g>
<g><path style="opacity:0.006" fill="#000000" d="M 50.5,57.5 C 50.5,57.1667 50.5,56.8333 50.5,56.5C 51.1667,56.5 51.8333,56.5 52.5,56.5C 52.1583,57.3382 51.4916,57.6716 50.5,57.5 Z"/></g>
<g><path style="opacity:0.012" fill="#000000" d="M 49.5,57.5 C 49.8333,57.5 50.1667,57.5 50.5,57.5C 50.3147,58.1701 49.9813,58.1701 49.5,57.5 Z"/></g>
<g><path style="opacity:0.012" fill="#000000" d="M 48.5,58.5 C 48.8333,58.5 49.1667,58.5 49.5,58.5C 49.3147,59.1701 48.9813,59.1701 48.5,58.5 Z"/></g>
<g><path style="opacity:0.008" fill="#000000" d="M 46.5,60.5 C 46.5,60.1667 46.5,59.8333 46.5,59.5C 47.1667,59.5 47.8333,59.5 48.5,59.5C 48.1583,60.3382 47.4916,60.6716 46.5,60.5 Z"/></g>
<g><path style="opacity:0.01" fill="#000000" d="M 44.5,61.5 C 44.5,61.1667 44.5,60.8333 44.5,60.5C 45.1667,60.5 45.8333,60.5 46.5,60.5C 46.1583,61.3382 45.4916,61.6716 44.5,61.5 Z"/></g>
<g><path style="opacity:0.012" fill="#000000" d="M 42.5,62.5 C 42.5,62.1667 42.5,61.8333 42.5,61.5C 43.1667,61.5 43.8333,61.5 44.5,61.5C 44.1583,62.3382 43.4916,62.6716 42.5,62.5 Z"/></g>
<g><path style="opacity:0.009" fill="#000000" d="M 20.5,63.5 C 21.5676,62.5655 22.901,62.2322 24.5,62.5C 24.5,62.8333 24.5,63.1667 24.5,63.5C 23.1667,63.5 21.8333,63.5 20.5,63.5 Z"/></g>
<g><path style="opacity:0.009" fill="#000000" d="M 38.5,63.5 C 38.5,63.1667 38.5,62.8333 38.5,62.5C 39.8333,62.5 41.1667,62.5 42.5,62.5C 42.5,62.8333 42.5,63.1667 42.5,63.5C 41.1667,63.5 39.8333,63.5 38.5,63.5 Z"/></g>
</svg>
